<?xml version="1.0" encoding="UTF-8" ?>
<!DOCTYPE svg PUBLIC "-//W3C//DTD SVG 1.1//EN" "http://www.w3.org/Graphics/SVG/1.1/DTD/svg11.dtd">
<svg width="166pt" height="186pt" viewBox="0 0 166 186" version="1.1" xmlns="http://www.w3.org/2000/svg">
<g id="#ffffffff">
<path fill="#ffffff" opacity="1.00" d=" M 19.69 114.89 C 20.20 113.39 20.72 111.91 21.27 110.43 C 35.83 112.48 50.03 117.78 62.16 126.12 C 61.00 127.06 59.84 128.00 58.69 128.95 C 52.32 126.13 46.27 122.57 39.59 120.49 C 33.14 117.97 26.18 117.27 19.69 114.89 Z" />
<path fill="#ffffff" opacity="1.00" d=" M 100.58 125.10 C 112.72 117.32 126.63 112.44 140.87 110.31 C 141.16 111.84 142.50 113.72 141.23 115.12 C 137.70 116.66 133.81 117.10 130.12 118.14 C 120.58 120.42 111.54 124.26 102.94 128.93 C 102.15 127.65 101.36 126.38 100.58 125.10 Z" />
<path fill="#ffffff" opacity="1.00" d=" M 20.25 120.18 C 33.45 122.10 46.53 126.35 57.55 134.02 C 56.78 135.07 56.55 137.06 54.95 137.14 C 52.00 136.35 49.41 134.67 46.69 133.36 C 38.33 129.12 29.19 126.87 20.13 124.71 C 20.16 123.20 20.20 121.69 20.25 120.18 Z" />
<path fill="#ffffff" opacity="1.00" d=" M 132.77 121.65 C 135.75 120.77 138.82 120.25 141.92 120.11 C 141.51 121.97 141.77 124.93 139.20 125.17 C 130.35 127.49 121.51 130.13 113.29 134.22 C 110.73 135.43 108.23 137.18 105.27 137.04 C 105.09 136.26 104.75 134.69 104.57 133.91 C 112.93 127.81 122.84 124.26 132.77 121.65 Z" />
<path fill="#ffffff" opacity="1.00" d=" M 15.52 128.37 C 28.97 130.63 42.46 134.41 53.87 142.14 C 52.96 143.25 52.06 144.35 51.16 145.46 C 44.37 141.21 36.88 138.25 29.28 135.81 C 25.16 134.57 20.98 133.27 16.64 133.16 C 16.27 131.56 15.89 129.97 15.52 128.37 Z" />
<path fill="#ffffff" opacity="1.00" d=" M 107.86 142.22 C 119.52 134.86 132.81 130.50 146.33 128.12 C 146.05 129.66 147.22 132.66 144.83 132.87 C 132.75 134.85 121.12 139.27 110.55 145.42 C 109.65 144.36 108.75 143.29 107.86 142.22 Z" />
<path fill="#ffffff" opacity="1.00" d=" M 77.29 145.17 C 83.39 142.77 91.04 147.30 91.15 154.00 C 91.77 160.43 85.58 166.81 79.03 165.17 C 73.03 164.37 69.06 157.67 70.85 151.97 C 71.56 148.74 74.21 146.19 77.29 145.17 Z" />
</g>
<g id="#162b34ff">
<path fill="#ffffff" opacity="1.00" d=" M 52.86 7.68 C 54.58 7.60 55.12 5.75 56.10 4.66 C 60.17 4.86 65.38 3.03 68.43 6.58 C 72.06 10.40 70.89 17.89 65.71 19.69 C 62.93 20.40 59.97 20.30 57.14 19.92 C 55.39 19.22 54.41 17.45 53.09 16.19 C 49.87 17.33 46.89 20.28 47.60 23.97 C 49.04 30.88 51.72 37.45 53.86 44.16 C 63.83 47.57 72.83 53.26 80.80 60.09 C 88.32 52.50 98.08 47.78 107.87 43.87 C 109.61 39.11 110.83 34.20 112.48 29.41 C 113.38 26.41 114.70 22.97 113.04 19.98 C 112.01 18.03 109.93 17.13 107.99 16.35 C 106.48 17.74 105.35 20.09 103.01 20.05 C 100.45 20.21 97.80 20.36 95.31 19.67 C 89.77 17.02 89.49 7.58 95.16 4.87 C 98.34 4.06 101.70 4.61 104.95 4.55 C 107.12 8.88 112.39 7.70 115.93 10.11 C 120.45 12.73 123.87 17.63 123.53 23.02 C 123.14 28.99 120.42 34.49 119.31 40.33 C 125.53 38.97 133.67 35.87 138.91 41.07 C 142.29 44.03 141.27 48.70 141.43 52.65 C 146.33 56.46 154.58 58.65 155.13 65.96 C 155.27 87.31 155.14 108.67 155.17 130.02 C 155.13 133.00 155.11 136.53 152.57 138.57 C 149.57 140.96 145.50 140.81 141.94 141.72 C 128.74 144.94 115.51 150.00 105.35 159.30 C 102.99 162.85 102.46 167.38 99.77 170.79 C 91.28 182.14 72.20 182.90 62.94 172.08 C 59.42 168.36 57.99 163.38 56.33 158.69 C 45.61 150.26 32.84 144.67 19.57 141.68 C 16.53 141.00 13.34 140.89 10.46 139.64 C 7.91 138.57 6.60 135.70 6.66 133.05 C 6.55 111.02 6.69 89.00 6.59 66.97 C 6.59 65.17 6.59 63.23 7.73 61.72 C 10.74 57.57 15.58 55.44 19.73 52.67 C 20.90 49.02 19.00 44.24 22.42 41.40 C 27.51 35.76 35.66 39.01 41.99 40.09 C 40.38 32.99 36.08 25.82 38.52 18.39 C 40.32 12.13 46.69 8.41 52.86 7.68 M 116.52 49.67 C 111.66 59.05 111.23 70.73 103.98 78.97 C 99.69 84.56 92.86 87.46 86.04 88.43 C 85.60 101.08 85.89 113.76 85.90 126.42 C 98.80 114.38 115.51 107.28 132.51 103.29 C 132.52 84.36 132.76 65.42 132.37 46.50 C 126.92 46.01 121.66 48.16 116.52 49.67 M 28.90 46.73 C 28.59 64.50 28.88 82.27 28.74 100.04 C 28.94 101.27 28.25 103.64 30.13 103.79 C 43.61 106.66 56.65 112.04 67.84 120.14 C 70.66 122.12 72.96 124.76 75.88 126.60 C 75.80 113.92 75.97 101.24 75.76 88.57 C 69.69 87.52 63.60 85.29 59.33 80.67 C 51.26 72.79 49.80 61.10 45.87 51.05 C 45.41 49.43 43.53 49.29 42.21 48.78 C 37.86 47.73 33.45 46.02 28.90 46.73 M 80.31 69.73 C 73.63 63.41 65.99 58.02 57.51 54.40 C 58.75 59.77 60.34 65.14 63.01 69.99 C 65.83 75.10 71.17 78.66 76.95 79.35 C 83.13 79.82 89.91 78.98 94.73 74.73 C 100.90 69.57 102.04 61.13 104.46 53.91 C 95.48 57.62 87.77 63.65 80.31 69.73 M 15.36 64.29 C 14.95 85.87 15.30 107.45 15.11 129.03 C 15.22 130.51 14.64 132.77 16.64 133.16 C 20.98 133.27 25.16 134.57 29.28 135.81 C 36.88 138.25 44.37 141.21 51.16 145.46 C 53.15 146.80 55.20 148.07 57.44 148.97 C 59.00 142.01 63.96 136.47 69.81 132.67 C 67.62 130.09 64.95 127.99 62.16 126.12 C 50.03 117.78 35.83 112.48 21.27 110.43 C 20.69 109.40 20.17 108.30 20.27 107.08 C 20.18 91.69 20.58 76.28 20.12 60.90 C 18.47 61.94 16.89 63.08 15.36 64.29 M 141.37 60.90 C 141.25 71.60 141.37 82.30 141.28 93.00 C 141.19 98.77 141.60 104.56 140.87 110.31 C 126.63 112.44 112.72 117.32 100.58 125.10 C 97.46 127.38 94.14 129.53 91.80 132.67 C 98.07 136.43 102.97 142.50 104.40 149.77 C 106.44 148.31 108.50 146.86 110.55 145.42 C 121.12 139.27 132.75 134.85 144.83 132.87 C 147.22 132.66 146.05 129.66 146.33 128.12 C 146.23 106.78 146.60 85.43 146.23 64.09 C 144.63 62.99 143.03 61.90 141.37 60.90 M 75.40 140.44 C 65.49 143.87 62.34 158.00 69.51 165.51 C 74.93 172.45 87.02 172.29 92.30 165.28 C 96.41 160.50 96.78 153.28 94.36 147.65 C 91.15 140.75 82.36 137.75 75.40 140.44 Z" />
</g>
<g id="#b1b1adff">
</g>
</svg>
